<?xml version="1.0" encoding="UTF-8"?>
<svg width="33px" height="39px" viewBox="0 0 33 39" xmlns="http://www.w3.org/2000/svg" xmlns:xlink="http://www.w3.org/1999/xlink" version="1.1">
 <!-- Generated by Pixelmator Pro 2.1.3 -->
 <g id="group">
  <path id="Path" d="M32.5 9.6 C32.5 -2.8 26 6.1 16.2 0 6.5 6.1 0 -2.8 0 9.6 0 21.9 6.5 32.8 16.2 38.9 26 32.7 32.5 21.9 32.5 9.6" fill="#1780c3" fill-opacity="1" stroke="none"/>
  <path id="Path-1" d="M32.5 9.6 C32.5 -2.8 26 6.1 16.3 0 L16.3 38.8 C26 32.7 32.5 21.9 32.5 9.6" fill="#005c95" fill-opacity="1" stroke="none"/>
 </g>
 <g id="group-1">
  <g id="group-2">
   <g id="group-3">
    <g id="group-4">
     <g id="group-5"/>
    </g>
   </g>
  </g>
 </g>
 <path id="Path-2" d="M12.5 11.8 L12.5 8 C12.5 7.4 12.8 7 13.4 7 L15.3 7 C15.9 7 16.3 7.3 16.3 8 L16.3 19 C16.3 19.6 16 20 15.3 20 L13.4 20 C12.8 20 12.5 19.7 12.5 19 L12.5 14.8 M8.5 14.9 L8.5 19 C8.5 19.6 8.2 20 7.6 20 L5.6 20 C5 20 4.7 19.7 4.7 19 L4.7 8 C4.7 7.4 5 7 5.6 7 L7.5 7 C8.1 7 8.4 7.3 8.4 8 L8.4 11.8 8.4 14.9 Z" fill="#ffffff" fill-opacity="1" stroke="none"/>
 <path id="Path-3" d="M16.2 23.1 C16.2 22.6 16.4 22.2 16.6 21.8 18.2 19.7 20.9 16.2 21.7 14.6 L9.4 14.6 C8.8 14.6 8.4 14.3 8.4 13.7 L8.4 12.8 C8.4 12.2 8.7 11.8 9.4 11.8 L25.2 11.8 C25.8 11.8 26.1 12.1 26.1 12.8 L26.1 13.5 C26.1 14 26 14.4 25.8 14.8 24.6 16.8 22.1 20.2 20.8 21.9 L25.6 21.9 C26.2 21.9 26.6 22.2 26.6 22.9 L26.6 23.8 C26.6 24.4 26.3 24.8 25.6 24.8 L17.1 24.8 C16.5 24.8 16.2 24.5 16.2 23.8" fill="#ffffff" fill-opacity="1" stroke="none"/>
</svg>
